<svg xmlns="http://www.w3.org/2000/svg" viewBox="0 0 128 128">
  <defs>
    <linearGradient id="bg" x1="18" y1="10" x2="110" y2="122" gradientUnits="userSpaceOnUse">
      <stop stop-color="#171827"/>
      <stop offset="0.55" stop-color="#0B1020"/>
      <stop offset="1" stop-color="#071813"/>
    </linearGradient>
    <linearGradient id="shield" x1="30" y1="16" x2="98" y2="110" gradientUnits="userSpaceOnUse">
      <stop stop-color="#A78BFA"/>
      <stop offset="0.48" stop-color="#60A5FA"/>
      <stop offset="1" stop-color="#2DD4BF"/>
    </linearGradient>
    <linearGradient id="glass" x1="45" y1="38" x2="83" y2="76" gradientUnits="userSpaceOnUse">
      <stop stop-color="#F8FAFC"/>
      <stop offset="1" stop-color="#BAE6FD"/>
    </linearGradient>
    <filter id="glow" x="-40%" y="-40%" width="180%" height="180%">
      <feGaussianBlur stdDeviation="4" result="blur"/>
      <feColorMatrix in="blur" type="matrix" values="0 0 0 0 0.45 0 0 0 0 0.35 0 0 0 0 1 0 0 0 0.55 0"/>
      <feBlend in="SourceGraphic"/>
    </filter>
  </defs>
  <rect width="128" height="128" rx="28" fill="url(#bg)"/>
  <path d="M64 13 99 27v28c0 28-18.5 48.5-35 58-16.5-9.5-35-30-35-58V27l35-14Z" fill="#111827" stroke="url(#shield)" stroke-width="7" filter="url(#glow)"/>
  <path d="M64 24 88 33.5v21.2c0 20-11.5 35.2-24 43.3-12.5-8.1-24-23.3-24-43.3V33.5L64 24Z" fill="#0F172A" opacity="0.92"/>
  <circle cx="59" cy="55" r="18" fill="none" stroke="url(#glass)" stroke-width="8"/>
  <path d="m72.5 68.5 18 18" stroke="#2DD4BF" stroke-width="9" stroke-linecap="round"/>
  <circle cx="54" cy="50" r="5" fill="#F8FAFC" opacity="0.78"/>
  <path d="M40 96c7 8 15 14 24 19 9-5 17-11 24-19" fill="none" stroke="#A78BFA" stroke-width="3" stroke-linecap="round" opacity="0.65"/>
</svg>
